<svg xmlns="http://www.w3.org/2000/svg" height="800" width="1200" viewBox="-7.9059 -4.595 68.5178 27.57"><path d="M43.576 18.38c5.034 0 9.13-4.123 9.13-9.19 0-5.07-4.096-9.19-9.13-9.19-5.035 0-9.13 4.12-9.13 9.19 0 5.067 4.095 9.19 9.13 9.19zm0-12.467c1.794 0 3.255 1.47 3.255 3.276 0 1.806-1.462 3.274-3.256 3.274-1.795 0-3.254-1.468-3.254-3.275 0-1.808 1.46-3.277 3.254-3.277zM9.13 18.38c5.034 0 9.13-4.123 9.13-9.19C18.26 4.12 14.164 0 9.13 0 4.097 0 0 4.12 0 9.19c0 5.067 4.097 9.19 9.13 9.19zm0-12.467c1.795 0 3.255 1.47 3.255 3.276 0 1.806-1.46 3.274-3.255 3.274-1.794 0-3.253-1.468-3.253-3.275 0-1.808 1.46-3.277 3.253-3.277zm17.218-.207L23.545.12h-6.563l6.13 12.22v5.753h6.473V12.34L35.715.12h-6.566l-2.8 5.586z" fill="#ee2e24"/></svg>